<svg xmlns="http://www.w3.org/2000/svg" version="1.1" xmlns:xlink="http://www.w3.org/1999/xlink" width="512" height="512"><svg width="512" height="512" viewBox="0 0 512 512" fill="none" xmlns="http://www.w3.org/2000/svg">
<path d="M512 256C512 397.385 397.385 512 256 512C114.615 512 0 397.385 0 256C0 114.615 114.615 0 256 0C397.385 0 512 114.615 512 256Z" fill="#F9FAFB"></path>
<path fill-rule="evenodd" clip-rule="evenodd" d="M114.399 323.441V221.307L146.077 202.776V304.887L214.946 264.549L215.029 161.768L246.708 143.236L246.515 397.298H214.836L214.916 301.279L146.077 341.6V397.276H114.399V360.155L93.6521 372.31L93.6244 335.61L114.399 323.441ZM419.205 211.872L419.234 175.175L256.625 79.92L146.077 144.671V92.1162L114.4 109.362V163.226L93.9961 175.175L94.0245 211.872L120.881 196.14V196.143L256.625 116.632L392.353 196.143V196.14L419.205 211.872ZM402.564 222.889L266.643 143.267L266.625 179.966L266.67 179.993L266.835 397.327H298.346L298.312 355.485L331.836 335.849L371.172 358.894L370.883 397.206H402.564V377.28L402.654 377.335V340.622L363.173 317.495L402.583 294.409L402.564 222.889ZM298.185 198.456L370.883 241.044V276.266L298.282 318.791L298.185 198.456Z" fill="#111827"></path>
<path d="M489.371 256C489.371 384.887 384.887 489.371 256 489.371C127.113 489.371 22.629 384.887 22.629 256C22.629 127.113 127.113 22.629 256 22.629C384.887 22.629 489.371 127.113 489.371 256ZM40.2692 256C40.2692 375.145 136.855 471.731 256 471.731C375.145 471.731 471.731 375.145 471.731 256C471.731 136.855 375.145 40.2692 256 40.2692C136.855 40.2692 40.2692 136.855 40.2692 256Z" fill="#111827"></path>
</svg><style>@media (prefers-color-scheme: light) { :root { filter: none; } }
@media (prefers-color-scheme: dark) { :root { filter: none; } }
</style></svg>