<svg width="6652" height="6652" viewBox="0 0 6652 6652" fill="none" xmlns="http://www.w3.org/2000/svg">
<circle cx="3326" cy="3326" r="3326" fill="#D9D9D9"/>
<path fill-rule="evenodd" clip-rule="evenodd" d="M1486.3 4202.21V2875.26L1897.86 2634.51V3961.16L2792.62 3437.07L2793.7 2101.72L3205.27 1860.95L3202.77 5161.77H2791.19L2792.23 3914.28L1897.86 4438.13V5161.49H1486.3V4679.2L1216.75 4837.12L1216.39 4360.31L1486.3 4202.21ZM5446.4 2752.69L5446.76 2275.91L3334.12 1038.34L1897.86 1879.59V1196.79L1486.31 1420.85V2120.67L1221.22 2275.91L1221.58 2752.69L1570.51 2548.29V2548.32L3334.12 1515.31L5097.53 2548.32V2548.29L5446.4 2752.69ZM5230.18 2895.81L3464.28 1861.35L3464.04 2338.16L3464.63 2338.5L3466.76 5162.15H3876.16L3875.72 4618.53L4311.27 4363.41L4822.34 4662.82L4818.58 5160.58H5230.18V4901.7L5231.36 4902.4V4425.43L4718.41 4124.95L5230.44 3825.01L5230.18 2895.81ZM3874.07 2578.37L4818.58 3131.68V3589.3L3875.34 4141.79L3874.07 2578.37Z" fill="#111827"/>
<path d="M6358 3326C6358 5000.53 5000.53 6358 3326 6358C1651.47 6358 294 5000.53 294 3326C294 1651.47 1651.47 294 3326 294C5000.53 294 6358 1651.47 6358 3326ZM523.185 3326C523.185 4873.95 1778.05 6128.82 3326 6128.82C4873.95 6128.82 6128.82 4873.95 6128.82 3326C6128.82 1778.05 4873.95 523.185 3326 523.185C1778.05 523.185 523.185 1778.05 523.185 3326Z" fill="#111827"/>
</svg>
