<svg width="430" height="430" viewBox="0 0 430 430" fill="none" xmlns="http://www.w3.org/2000/svg">
<circle cx="215" cy="215" r="215" fill="#D9D9D9"/>
<path fill-rule="evenodd" clip-rule="evenodd" d="M157.756 242.054V242.053L159.409 241.084V201.179L171.785 193.939V233.835L198.691 218.074L198.724 177.917L211.1 170.676L211.025 269.941H198.648L198.679 232.425L171.785 248.179V269.932H159.409V255.428L151.304 260.177L151.293 245.839L157.756 242.054ZM27.4541 215.845C27.4093 216.423 27.4369 217.195 27.4897 218.34C27.5217 219.846 27.5723 221.347 27.6358 222.846L27.672 222.846L27.6895 223.515C27.8106 228.368 28.3565 235.598 29.2443 240.251C29.4692 240.214 38.1258 233.914 39.2658 233.145C41.0369 231.95 42.7407 230.826 44.5985 229.612C45.9578 228.724 48.6415 226.891 50.0923 226.337C50.2715 229.126 50.4981 232.074 50.8508 234.716C51.3576 238.503 51.1749 237.168 48.3072 241.359C47.3718 242.727 41.4109 251.199 41.1539 253.062C40.0767 253.88 37.326 259.458 36.4659 261.16C33.8922 266.254 34.2891 265.175 35.962 270.736C37.3578 275.378 40.934 285.384 43.0832 289.407C43.7867 287.932 52.9914 277.163 54.7673 275.009L59.277 270.748L59.9408 272.294C60.2274 273.055 60.4482 273.643 60.7037 274.311C63.7873 282.378 63.8315 278.982 61.2251 286.474C58.9148 293.112 56.736 301.532 55.3821 308.688C55.064 310.369 54.4333 311.886 55.3376 313.252C59.8845 320.125 61.7144 322.972 66.7379 329.603C67.6034 330.744 68.6498 331.747 69.1956 332.991L70.106 331.687C70.2919 331.238 70.4244 330.813 70.6341 330.296C72.972 324.493 76.9031 315.205 79.8572 310.384L82.2025 313.312C87.8758 320.849 86.6416 317.314 86.2724 324.804C85.9426 331.51 85.7952 338.783 86.3932 345.457C86.9975 352.203 86.1815 350.892 88.8957 353.52C90.8762 355.437 104.303 366.809 106.766 367.762C107.273 363.567 107.693 359.405 108.329 355.239C108.676 352.969 109.971 344.601 110.662 343.163L118.585 349.078C120.361 350.291 119.742 351.404 120.65 355.351C122.062 361.492 123.67 367.397 125.615 372.906C129.082 382.727 126.638 380.314 136.049 384.888L151.962 391.327C151.942 389.794 151.305 387.163 151.047 385.442C150.157 379.5 149.298 372.357 148.99 366.436C150.916 366.908 154.592 368.692 156.733 369.493C160.376 370.856 158.928 369.606 161.96 375.353C166.909 384.731 169.13 387.713 174.694 395.648C177.086 399.062 176.108 398.203 182.146 399.282C188.301 400.383 195.605 401.475 201.944 401.669C200.085 396.353 194.295 386.556 192.421 378.483C195.363 378.628 199.472 379.115 202.533 379.492C204.045 379.678 204.714 381.052 206.864 383.187C212.788 389.066 218.17 394.768 225.292 400.007C228.169 402.122 227.397 401.849 233.889 401.181C240.855 400.464 244.192 399.795 250.615 398.697C251.426 398.559 252.127 398.513 252.79 398.004C251.248 396.699 250.109 395.066 248.731 393.5C247.556 392.164 246.084 390.29 244.893 388.734L237.841 378.46L246.785 376.834C249.079 376.371 249.221 377.174 250.803 378.104C255.668 380.963 272.357 390.286 277.066 391.226C278.18 391.448 283.85 388.947 285.237 388.376C288.97 386.839 298.082 383.202 300.736 381.148L290.543 374.14C264.317 354.045 307.094 365.979 317.875 367.342C323.097 368.003 322.166 368.28 325.658 365.788L334.201 359.078C334.964 358.38 336.155 357.342 337.05 356.652C338.212 355.756 341.752 352.686 342.377 351.73C340.851 350.92 322.321 345.402 319.131 342.849L324.777 337.984C328.26 334.66 326.568 335.639 333.237 335.583C341.449 335.517 349.913 334.668 357.977 333.435C360.452 333.056 360.159 332.796 361.374 331.297C362.919 329.391 364.608 327.343 366.068 325.171L372.589 315.593C373.369 314.331 374.494 313.022 374.483 312.172C368.436 312.164 355.055 311.385 349.713 309.984L354.487 302.766C356.826 298.832 357.152 301.09 362.552 298.745C364.548 298.391 371.526 296.059 373.018 295.153L375.161 294.435C375.572 294.292 375.959 294.174 376.277 294.053C376.841 293.84 376.355 294.06 376.891 293.798C377.507 293.498 377.203 293.653 377.484 293.457C379.328 293.01 383.548 290.95 385.366 290.073C386.425 289.562 386.359 289.778 386.844 288.781L389.317 282.647C391.051 278.242 394.132 270.339 394.99 265.413C387.072 267.041 378.992 269.287 370.352 270.135C370.692 269.037 373.441 259.842 374.017 259.296C374.51 258.826 376.409 257.845 377.185 257.371C385.602 252.683 391.961 246.924 398.993 241.524C400.051 240.712 400.223 240.501 400.431 238.821C400.748 236.241 401.077 233.644 401.256 231.007C401.361 229.483 401.465 227.944 401.563 226.401L401.608 226.401C401.754 224.023 401.862 221.635 401.923 219.234C401.97 217.807 401.998 216.385 402 214.973L401.98 214.98V214.734C401.98 111.322 318.136 27.4902 214.715 27.4902C111.294 27.4902 27.4503 111.322 27.4503 214.734L27.4541 215.845ZM392.111 220.175C387.693 222.478 382.335 225.237 379.4 226.019C379.681 223.017 379.376 217.954 379.8 215.469C379.83 215.293 380.193 214.787 380.767 214.075H303.085C302.73 165.575 263.303 126.366 214.715 126.366C166.128 126.366 126.7 165.575 126.346 214.075H37.2406C37.5968 116.369 116.916 37.2707 214.715 37.2707C312.734 37.2707 392.198 116.724 392.198 214.734C392.198 216.555 392.168 218.368 392.111 220.175ZM298.469 214.075C298.471 214.295 298.477 214.514 298.477 214.734C298.477 260.989 260.974 298.486 214.715 298.486C168.456 298.486 130.953 260.989 130.953 214.734C130.953 214.514 130.96 214.295 130.961 214.075H130.962C131.317 168.123 168.677 130.982 214.715 130.982C260.754 130.982 298.113 168.123 298.468 214.075H298.469ZM328.046 268.706C331.709 267.181 334.55 264.322 336.055 260.657C336.062 260.637 336.068 260.624 336.076 260.604L336.554 259.438C338.312 255.157 336.263 250.254 331.981 248.496C328.374 247.016 324.26 248.203 321.983 251.385L318.293 256.571C317.348 257.866 315.658 258.35 314.172 257.741C312.404 257.014 311.557 254.976 312.285 253.202L312.764 252.037C313.783 249.556 315.702 247.621 318.159 246.593C318.177 246.585 318.198 246.572 318.207 246.552C318.214 246.532 318.215 246.51 318.199 246.495L317.911 245.834L316.359 242.106C316.348 242.094 316.335 242.073 316.314 242.065C316.295 242.057 316.279 242.058 316.261 242.066C312.595 243.598 309.753 246.456 308.248 250.122C308.243 250.136 308.236 250.155 308.227 250.175L307.749 251.34C305.994 255.614 308.034 260.522 312.303 262.274C315.93 263.763 320.043 262.576 322.308 259.389L326.01 254.208C326.946 252.916 328.631 252.445 330.111 253.052C331.885 253.781 332.744 255.809 332.017 257.576L331.539 258.742C330.521 261.223 328.601 263.159 326.139 264.183C326.12 264.191 326.105 264.207 326.097 264.227C326.092 264.239 326.091 264.262 326.099 264.28L326.536 265.302L327.945 268.673C327.952 268.691 327.963 268.703 327.982 268.711C328.009 268.722 328.027 268.714 328.046 268.706ZM115.244 246.983L118.216 254.871C119.342 257.858 117.827 261.203 114.828 262.334C111.848 263.458 108.501 261.943 107.376 258.956L104.403 251.068L115.244 246.983ZM175.719 311.493C180.736 313.709 183.016 319.598 180.797 324.622C178.581 329.638 172.692 331.919 167.675 329.702C162.651 327.484 160.371 321.594 162.587 316.577C164.807 311.554 170.695 309.274 175.719 311.493ZM279.78 296.541C284.084 293.142 290.356 293.878 293.76 298.187C297.16 302.491 296.424 308.764 292.119 312.163C287.81 315.568 281.538 314.831 278.138 310.527C274.734 306.218 275.471 299.946 279.78 296.541ZM91.9902 255.656C92.0045 255.697 92.0509 255.717 92.0903 255.702L99.8054 252.794L102.398 259.675C102.548 260.072 102.535 260.538 102.362 260.944L98.924 268.517C98.9195 268.526 98.9087 268.537 98.9053 268.547C98.1821 270.143 98.1214 271.927 98.7403 273.57C98.7556 273.609 98.7991 273.624 98.8392 273.608L103.289 271.931C103.322 271.919 103.344 271.88 103.33 271.841C103.177 271.436 103.194 270.977 103.363 270.565L105.877 265.073C108.838 267.594 112.918 268.303 116.56 266.93C122.083 264.849 124.887 258.665 122.803 253.135L118.129 240.731C118.114 240.691 118.068 240.671 118.029 240.685L90.3602 251.112C90.3208 251.127 90.2998 251.173 90.3151 251.213L91.9902 255.656ZM116.708 299.72C116.733 299.754 116.782 299.762 116.817 299.737L120.661 296.937C120.696 296.912 120.697 296.867 120.673 296.833L111.13 283.733L117.195 279.317L124.052 288.732C124.077 288.766 124.127 288.774 124.161 288.749L125.706 287.624C125.723 287.612 125.725 287.602 125.732 287.587L126.413 287.092C126.428 287.089 126.444 287.087 126.455 287.078L128.006 285.949C128.04 285.924 128.048 285.875 128.023 285.84L121.164 276.424L127.228 272.008L136.769 285.108C136.794 285.142 136.838 285.154 136.872 285.129L140.717 282.329C140.75 282.304 140.759 282.255 140.733 282.22L128.342 265.208C128.316 265.174 128.267 265.166 128.234 265.191L104.334 282.599C104.3 282.624 104.291 282.673 104.317 282.708L116.708 299.72ZM127.913 310.946C127.946 310.972 127.996 310.966 128.022 310.931L139.566 295.767L141.242 317.073L141.578 321.34C141.581 321.36 141.594 321.378 141.611 321.391L142.284 321.886L143.145 322.542C143.179 322.567 143.222 322.556 143.249 322.522L161.158 298.996C161.183 298.962 161.183 298.917 161.149 298.891L160.687 298.54C160.68 298.525 160.673 298.511 160.662 298.503L157.762 296.295C157.751 296.286 157.735 296.284 157.719 296.28L157.353 296.002C157.319 295.976 157.27 295.983 157.244 296.016L145.709 311.17L144.024 289.876L143.686 285.634C143.688 285.609 143.676 285.59 143.659 285.578L142.138 284.42C142.105 284.394 142.054 284.401 142.029 284.435L124.12 307.961C124.094 307.995 124.101 308.044 124.135 308.07L127.913 310.946ZM165.69 334.196C173.186 337.507 181.978 334.102 185.289 326.607C188.604 319.103 185.2 310.311 177.703 307C170.2 303.686 161.409 307.09 158.095 314.593C154.783 322.089 158.187 330.881 165.69 334.196ZM215.366 316.063L210.384 315.098C210.356 315.093 210.324 315.109 210.305 315.134L200.106 331.93L196.923 312.544C196.915 312.514 196.891 312.487 196.863 312.482L191.881 311.518C191.853 311.513 191.829 311.523 191.813 311.534C191.795 311.552 191.783 311.578 191.792 311.602L196.191 338.417L196.683 341.31L196.909 342.715C196.91 342.745 196.934 342.77 196.969 342.778L198.983 343.167C199.011 343.172 199.043 343.157 199.063 343.132L215.416 316.174C215.428 316.155 215.431 316.133 215.421 316.11C215.411 316.086 215.386 316.067 215.366 316.063ZM210.349 344.106L215.419 343.905C215.447 343.904 215.475 343.882 215.488 343.853L217.433 337.883L226.711 337.516L229.107 343.313C229.123 343.342 229.152 343.361 229.18 343.361L234.25 343.159C234.278 343.158 234.299 343.144 234.313 343.129C234.326 343.107 234.325 343.078 234.316 343.057L223.897 317.967L222.763 315.257L222.222 313.939C222.207 313.911 222.178 313.891 222.149 313.892L220.098 313.974C220.063 313.975 220.036 313.998 220.03 314.026L210.274 344.009C210.261 344.031 210.269 344.059 210.283 344.073C210.299 344.094 210.32 344.107 210.349 344.106ZM221.583 325.162L224.699 332.68L219.063 332.904L221.583 325.162ZM239.023 316.288L245.572 340.145C245.584 340.187 245.627 340.212 245.668 340.2L250.254 338.941C250.295 338.93 250.313 338.888 250.301 338.847L243.752 314.989L252.91 312.475C252.95 312.463 252.971 312.429 252.959 312.387L251.701 307.801C251.69 307.761 251.653 307.734 251.612 307.746L228.572 314.07C228.532 314.082 228.507 314.126 228.518 314.166L229.777 318.753C229.788 318.793 229.83 318.811 229.871 318.799L239.023 316.288ZM273.819 329.729C273.857 329.71 273.874 329.664 273.855 329.625L260.979 303.009C260.959 302.97 260.913 302.954 260.874 302.973L256.599 305.04C256.561 305.059 256.545 305.106 256.564 305.144L269.441 331.761C269.459 331.8 269.506 331.815 269.545 331.797L273.819 329.729ZM295.164 316.018C301.595 310.938 302.694 301.574 297.614 295.143C292.53 288.707 283.167 287.608 276.735 292.688C270.299 297.77 269.2 307.135 274.284 313.571C279.363 320.002 288.728 321.102 295.164 316.018ZM316.591 294.911C316.616 294.877 316.608 294.827 316.573 294.802L301.077 283.707L322.324 281.407L326.58 280.946C326.599 280.944 326.618 280.93 326.629 280.913L327.105 280.225L327.735 279.345C327.76 279.311 327.747 279.267 327.713 279.242L303.672 262.03C303.637 262.006 303.592 262.008 303.568 262.042L303.229 262.514C303.215 262.521 303.202 262.529 303.193 262.541L301.072 265.504C301.063 265.515 301.061 265.531 301.059 265.547L300.791 265.921C300.765 265.955 300.774 266.005 300.808 266.029L316.293 277.115L295.058 279.423L290.828 279.885C290.802 279.885 290.783 279.898 290.77 279.915L289.659 281.468C289.634 281.503 289.642 281.552 289.677 281.577L313.718 298.79C313.752 298.815 313.802 298.805 313.827 298.771L316.591 294.911ZM278.492 197.493L278.503 183.155L225.465 152.083V152.084L214.974 145.938L204.483 152.084V152.083L171.785 171.237V150.703L159.41 157.441V178.487L151.438 183.155L151.449 197.493L161.942 191.346V191.347L214.974 160.282L268.001 191.347V191.346L278.492 197.493ZM104.675 192.149C104.693 192.093 104.66 192.032 104.604 192.015L88.2326 187.046L93.9627 168.166L110.334 173.135C110.391 173.152 110.451 173.119 110.468 173.063L112.391 166.729C112.408 166.672 112.373 166.621 112.316 166.603L73.0524 154.687C72.9965 154.671 72.9377 154.694 72.9202 154.75L70.9979 161.083C70.9813 161.141 71.0141 161.202 71.07 161.218L87.4506 166.19L81.7204 185.07L65.3402 180.099C65.2839 180.081 65.2229 180.114 65.2051 180.17L63.2913 186.476C63.2742 186.533 63.3072 186.594 63.3635 186.611L102.627 198.527C102.684 198.544 102.745 198.512 102.762 198.455L104.675 192.149ZM130.723 139.492C130.755 139.443 130.743 139.375 130.694 139.341L125.232 135.637C125.183 135.604 125.123 135.622 125.09 135.671L112.465 154.283L103.85 148.439L112.925 135.062C112.957 135.013 112.945 134.945 112.896 134.912L110.701 133.423C110.677 133.406 110.664 133.409 110.642 133.406L109.675 132.75C109.663 132.73 109.653 132.712 109.637 132.701L107.434 131.207C107.385 131.174 107.317 131.187 107.284 131.235L98.2097 144.613L89.5944 138.77L102.22 120.157C102.253 120.109 102.247 120.046 102.198 120.013L96.737 116.308C96.6884 116.275 96.6197 116.288 96.5867 116.337L80.1908 140.508C80.1581 140.557 80.1714 140.625 80.22 140.658L114.177 163.691C114.226 163.725 114.294 163.712 114.327 163.663L130.723 139.492ZM138.457 132.871C138.501 132.834 138.508 132.765 138.47 132.72L131.117 123.954L138.935 117.396C139.386 117.018 140.003 116.821 140.613 116.86L152.11 117.882C152.124 117.883 152.144 117.892 152.158 117.893C154.579 118.106 156.944 117.365 158.81 115.8C158.856 115.762 158.854 115.699 158.816 115.654L154.575 110.597C154.543 110.56 154.482 110.547 154.437 110.585C153.977 110.97 153.369 111.161 152.751 111.128L144.404 110.361C146.345 105.324 145.398 99.6573 141.927 95.5184C136.664 89.2433 127.276 88.4127 120.993 93.6828L106.901 105.504C106.855 105.542 106.849 105.611 106.887 105.656L133.256 137.093C133.293 137.139 133.363 137.145 133.408 137.106L138.457 132.871ZM116.413 106.408L125.375 98.8909C128.768 96.0446 133.846 96.4894 136.706 99.8978C139.545 103.285 139.1 108.362 135.706 111.208L126.745 118.725L116.413 106.408ZM168.151 112.644C168.207 112.625 168.236 112.562 168.216 112.506L159.28 87.6142L185.35 101.753L190.572 104.585C190.597 104.596 190.628 104.596 190.656 104.586L191.74 104.176L193.153 103.668C193.21 103.648 193.23 103.589 193.21 103.533L179.345 64.9149C179.325 64.8597 179.272 64.8263 179.216 64.8463L178.459 65.1183C178.437 65.1161 178.415 65.1132 178.397 65.1202L173.637 66.829C173.618 66.8357 173.603 66.8519 173.587 66.8668L172.987 67.0826C172.931 67.1026 172.902 67.1655 172.922 67.2208L181.851 92.0947L155.788 77.9745L150.595 75.1638C150.566 75.1425 150.535 75.1428 150.507 75.153L148.011 76.0493C147.956 76.0693 147.927 76.1322 147.947 76.1869L161.811 114.806C161.831 114.862 161.893 114.891 161.949 114.871L168.151 112.644ZM196.812 102.914L203.853 102.943C203.892 102.943 203.932 102.914 203.951 102.875L207.01 94.717L219.896 94.7714L222.867 102.954C222.886 102.994 222.925 103.023 222.965 103.023L230.006 103.053C230.045 103.053 230.075 103.034 230.095 103.014C230.114 102.985 230.114 102.945 230.105 102.916L217.182 67.4966L215.774 63.6703L215.104 61.8116C215.085 61.7722 215.046 61.7414 215.006 61.7414L212.158 61.7296C212.109 61.7296 212.07 61.7591 212.059 61.7988L196.714 102.776C196.694 102.805 196.704 102.844 196.723 102.864C196.743 102.894 196.772 102.914 196.812 102.914ZM213.536 77.3317L217.4 87.945L209.573 87.9116L213.536 77.3317ZM239.833 105.682C239.889 105.698 239.949 105.664 239.966 105.607L247.052 80.126L260.163 106.729L262.79 112.057C262.803 112.081 262.829 112.098 262.857 112.106L263.979 112.397L265.427 112.8C265.484 112.816 265.534 112.78 265.55 112.723L276.544 73.1909C276.56 73.1347 276.536 73.0765 276.479 73.0603L275.703 72.8442C275.686 72.8306 275.67 72.8156 275.651 72.8105L270.779 71.4557C270.76 71.45 270.738 71.4541 270.716 71.4576L270.102 71.2867C270.045 71.2705 269.985 71.3057 269.968 71.3623L262.888 96.8237L249.771 70.2407L247.156 64.9464C247.145 64.9124 247.12 64.8953 247.091 64.8873L244.536 64.1762C244.479 64.1606 244.418 64.195 244.403 64.2522L233.409 103.783C233.393 103.84 233.427 103.9 233.484 103.917L239.833 105.682ZM280.289 124.044C289.27 131.022 302.265 129.392 309.249 120.404C316.221 111.432 314.585 98.4442 305.605 91.4659L293.973 82.4277C293.926 82.3911 293.857 82.3997 293.821 82.4464L268.639 114.854C268.602 114.901 268.61 114.969 268.658 115.005L280.289 124.044ZM295.08 91.9184L301.423 96.8481C307.434 101.519 308.53 110.206 303.86 116.216C299.178 122.242 290.482 123.333 284.471 118.663L278.128 113.733L295.08 91.9184ZM315.106 163.056C315.139 163.104 315.208 163.116 315.256 163.082L320.662 159.297C320.71 159.263 320.715 159.2 320.681 159.152L307.78 140.729L316.308 134.758L325.58 148.001C325.614 148.048 325.682 148.06 325.73 148.027L327.903 146.506C327.927 146.489 327.929 146.475 327.94 146.456L328.897 145.786C328.919 145.782 328.94 145.779 328.956 145.767L331.137 144.241C331.184 144.207 331.197 144.139 331.164 144.091L321.89 130.849L330.418 124.878L343.318 143.3C343.352 143.349 343.413 143.366 343.461 143.332L348.867 139.547C348.915 139.513 348.927 139.445 348.894 139.396L332.14 115.471C332.107 115.423 332.038 115.411 331.99 115.445L298.379 138.981C298.331 139.014 298.319 139.082 298.352 139.131L315.106 163.056ZM326.982 175.795L365.943 186.117C365.978 186.128 366.015 186.116 366.047 186.086C366.07 186.059 366.077 186.016 366.069 185.987L356.445 154.28C356.429 154.224 356.367 154.191 356.311 154.208L350.005 156.122C349.949 156.14 349.916 156.201 349.933 156.257L356.06 176.443L317.11 166.127C317.067 166.119 317.029 166.13 317.006 166.158C316.972 166.179 316.965 166.222 316.976 166.26L326.598 197.967C326.616 198.023 326.674 198.047 326.731 198.029L333.046 196.113C333.102 196.096 333.129 196.047 333.111 195.99L326.982 175.795ZM271.99 201.797L229.379 176.834L218.888 170.688L218.881 185.027L218.899 185.038L218.963 269.952H231.274L231.261 253.604L244.358 245.932L259.726 254.936L259.613 269.905H271.99V262.12L272.026 262.141V247.797L256.601 238.761L271.998 229.741L271.99 215.402V202.901V201.797ZM231.211 192.251L259.613 208.891V222.652L231.249 239.267L231.211 192.251Z" fill="#111827"/>
</svg>
