<svg xmlns="http://www.w3.org/2000/svg" xmlns:xlink="http://www.w3.org/1999/xlink" xml:space="preserve" version="1.1" style="shape-rendering:geometricPrecision; text-rendering:geometricPrecision; image-rendering:optimizeQuality; fill-rule:evenodd; clip-rule:evenodd" viewBox="9349.98 16964.28 11788.4 11776.16">
 <defs>
  <style type="text/css">
   <![CDATA[
    .fil0 {fill:#201E1E}
   ]]>
  </style>
 </defs>
 <g id="Capa_x0020_1">
  <metadata id="CorelCorpID_0Corel-Layer"/>
  <path class="fil0" d="M13451.54 23717.02l0 -0.01 52.04 -30.51 0 -1255.88 389.5 -227.86 0 1255.6 846.78 -496.02 1.02 -1263.83 389.51 -227.88 -2.37 3124.05 -389.51 0 0.98 -1180.69 -846.41 495.8 0 684.62 -389.5 0 0 -456.46 -255.1 149.46 -0.34 -451.27 203.4 -119.12zm-4100.85 -824.84c-1.41,18.19 -0.54,42.5 1.12,78.51 1.01,47.4 2.6,94.66 4.6,141.82l1.14 0.02 0.55 21.03c3.81,152.75 20.99,380.3 48.93,526.71 7.08,-1.14 279.52,-199.42 315.4,-223.63 55.74,-37.6 109.36,-72.98 167.83,-111.18 42.78,-27.94 127.24,-85.63 172.9,-103.08 5.64,87.79 12.77,180.55 23.87,263.7 15.95,119.19 10.2,77.16 -80.05,209.08 -29.44,43.06 -217.04,309.67 -225.13,368.31 -33.9,25.76 -120.47,201.31 -147.54,254.87 -81,160.31 -68.51,126.35 -15.86,301.38 43.93,146.09 156.48,460.99 224.12,587.6 22.14,-46.41 311.83,-385.35 367.72,-453.14l141.93 -134.11 20.89 48.67c9.02,23.96 15.97,42.47 24.01,63.49 97.05,253.86 98.44,147.01 16.41,382.77 -72.71,208.91 -141.28,473.91 -183.89,699.13 -10.01,52.92 -29.86,100.65 -1.4,143.65 143.1,216.31 200.69,305.89 358.79,514.58 27.24,35.92 60.17,67.5 77.35,106.62l28.65 -41.02c5.85,-14.14 10.02,-27.51 16.62,-43.79 73.58,-182.61 197.3,-474.93 290.27,-626.66l73.81 92.16c178.55,237.18 139.71,125.94 128.09,361.65 -10.38,211.08 -15.02,439.95 3.8,650.02 19.02,212.31 -6.66,171.04 78.76,253.74 62.33,60.34 484.89,418.24 562.42,448.24 15.95,-132.03 29.18,-263.02 49.2,-394.12 10.92,-71.45 51.66,-334.81 73.4,-380.08l249.35 186.18c55.91,38.17 36.42,73.18 65,197.42 44.45,193.26 95.04,379.09 156.25,552.47 109.11,309.11 32.21,233.17 328.38,377.11l500.82 202.64c-0.63,-48.24 -20.67,-131.03 -28.81,-185.22 -28.01,-186.98 -55.03,-411.8 -64.73,-598.13 60.61,14.83 176.32,71 243.68,96.2 114.68,42.89 69.1,3.55 164.53,184.42 155.75,295.14 225.65,389.01 400.74,638.74 75.3,107.43 44.52,80.39 234.54,114.36 193.71,34.65 423.57,69.01 623.1,75.13 -58.53,-167.33 -240.76,-475.65 -299.72,-729.71 92.58,4.56 221.91,19.87 318.24,31.75 47.58,5.84 68.65,49.1 136.32,116.3 186.42,185.02 355.8,364.47 579.96,529.34 90.54,66.57 66.23,57.96 270.57,36.95 219.21,-22.55 324.25,-43.63 526.38,-78.17 25.53,-4.35 47.61,-5.79 68.45,-21.8 -48.53,-41.08 -84.37,-92.48 -127.72,-141.75 -37,-42.07 -83.32,-101.03 -120.82,-150l-221.92 -323.36 281.49 -51.16c72.19,-14.59 76.67,10.68 126.44,39.96 153.11,89.99 678.34,383.38 826.54,412.97 35.08,7.01 213.53,-71.72 257.18,-89.7 117.47,-48.36 404.24,-162.81 487.77,-227.48l-320.8 -220.54c-825.38,-632.44 520.91,-256.85 860.19,-213.94 164.36,20.78 135.06,29.5 244.97,-48.92l268.85 -211.19c24.01,-21.96 61.51,-54.61 89.67,-76.34 36.58,-28.2 147.99,-124.81 167.65,-154.9 -48.04,-25.5 -631.19,-199.15 -731.61,-279.5l177.7 -153.1c109.62,-104.64 56.38,-73.83 266.26,-75.58 258.44,-2.08 524.82,-28.8 778.61,-67.61 77.91,-11.93 68.67,-20.1 106.9,-67.29 48.63,-59.98 101.78,-124.44 147.73,-192.78l205.25 -301.43c24.53,-39.74 59.95,-80.94 59.61,-107.68 -190.31,-0.25 -611.44,-24.77 -779.56,-68.87l150.25 -227.14c73.59,-123.83 83.87,-52.77 253.82,-126.55 62.79,-11.15 282.43,-84.54 329.36,-113.06l67.45 -22.61c12.93,-4.5 25.12,-8.2 35.14,-12.01 17.75,-6.7 2.45,0.23 19.31,-8.01 19.4,-9.45 9.83,-4.58 18.67,-10.76 58.04,-14.07 190.84,-78.88 248.06,-106.49 33.32,-16.07 31.24,-9.28 46.53,-40.66l77.81 -193.04c54.57,-138.64 151.55,-387.37 178.56,-542.4 -249.2,51.24 -503.49,121.91 -775.42,148.61 10.69,-34.56 97.23,-323.93 115.33,-341.12 15.54,-14.8 75.29,-45.68 99.72,-60.59 264.91,-147.54 465.03,-328.78 686.35,-498.73 33.28,-25.55 38.71,-32.21 45.24,-85.07 9.97,-81.2 20.33,-162.93 25.98,-245.92 3.28,-47.98 6.58,-96.39 9.64,-144.97l1.44 0.01c4.59,-74.84 7.97,-150 9.89,-225.55 1.48,-44.92 2.37,-89.68 2.43,-134.1l-0.62 0.2 0 -7.73c0,-3254.58 -2638.74,-5892.94 -5893.6,-5892.94 -3254.86,0 -5893.6,2638.36 -5893.6,5892.94l0.12 34.96zm11476.47 136.26c-139.02,72.49 -307.67,159.31 -400.04,183.94 8.84,-94.5 -0.74,-253.83 12.6,-332.02 0.95,-5.54 12.37,-21.47 30.42,-43.89l-2444.8 0c-11.16,-1526.4 -1252.02,-2760.36 -2781.17,-2760.36 -1529.15,0 -2770.01,1233.96 -2781.17,2760.36l-2804.31 0c11.21,-3075.01 2507.56,-5564.38 5585.48,-5564.38 3084.85,0 5585.75,2500.55 5585.75,5585.13 0,57.3 -0.95,114.37 -2.76,171.22zm-2947.09 -191.97c0.06,6.92 0.25,13.82 0.25,20.75 0,1455.73 -1180.29,2635.85 -2636.15,2635.85 -1455.86,0 -2636.15,-1180.12 -2636.15,-2635.85 0,-6.93 0.21,-13.83 0.25,-20.75l0.03 0c11.17,-1446.19 1186.95,-2615.1 2635.87,-2615.1 1448.92,0 2624.7,1168.91 2635.88,2615.1l0.02 0zm930.83 1719.35c115.29,-48 204.71,-137.96 252.06,-253.33 0.24,-0.63 0.42,-1.03 0.68,-1.66l15.03 -36.68c55.34,-134.75 -9.16,-289.06 -143.92,-344.38 -113.51,-46.59 -242.99,-9.22 -314.65,90.91l-116.14 163.22c-29.74,40.77 -82.93,56.01 -129.7,36.82 -55.64,-22.86 -82.28,-87.01 -59.36,-142.84l15.07 -36.67c32.06,-78.09 92.46,-138.99 169.78,-171.33 0.57,-0.24 1.24,-0.67 1.5,-1.3 0.22,-0.62 0.27,-1.32 -0.24,-1.77l-9.05 -20.82 -48.87 -117.33c-0.32,-0.36 -0.75,-1.02 -1.4,-1.28 -0.6,-0.25 -1.09,-0.22 -1.68,0.02 -115.38,48.22 -204.8,138.16 -252.17,253.55 -0.15,0.42 -0.39,1.02 -0.66,1.66l-15.05 36.67c-55.23,134.52 8.96,288.98 143.31,344.12 114.16,46.86 243.62,9.49 314.88,-90.81l116.52 -163.05c29.46,-40.65 82.48,-55.49 129.06,-36.37 55.83,22.92 82.86,86.75 60,142.36l-15.06 36.69c-32.04,78.1 -92.45,139.02 -169.95,171.25 -0.58,0.24 -1.05,0.76 -1.3,1.38 -0.18,0.4 -0.21,1.12 0.04,1.69l13.76 32.14 44.34 106.1c0.24,0.56 0.57,0.93 1.17,1.19 0.84,0.34 1.43,0.09 2,-0.15l0 0zm-6697.29 -683.66l93.54 248.23c35.43,94.01 -12.24,199.31 -106.64,234.89 -93.79,35.36 -199.11,-12.31 -234.52,-106.3l-93.55 -248.25 341.17 -128.57zm1903.26 2030.24c157.9,69.74 229.67,255.1 159.83,413.2 -69.75,157.88 -255.09,229.65 -412.99,159.89 -158.09,-69.82 -229.87,-255.17 -160.13,-413.06 69.87,-158.09 255.2,-229.86 413.29,-160.03zm3275.03 -470.55c135.44,-106.98 332.84,-83.83 439.98,51.81 106.98,135.45 83.83,332.85 -51.65,439.85 -135.61,107.14 -333.01,83.94 -440.01,-51.49 -107.13,-135.63 -83.95,-333.03 51.68,-440.17zm-5910.13 -1286.73c0.45,1.28 1.91,1.91 3.15,1.43l242.81 -91.5 81.6 216.55c4.72,12.5 4.3,27.17 -1.14,39.92l-108.2 238.35c-0.14,0.29 -0.48,0.63 -0.59,0.94 -22.76,50.23 -24.67,106.39 -5.19,158.08 0.48,1.25 1.85,1.72 3.11,1.22l140.04 -52.79c1.05,-0.37 1.75,-1.6 1.29,-2.85 -4.81,-12.72 -4.28,-27.19 1.05,-40.16l79.12 -172.84c93.19,79.36 221.59,101.67 336.21,58.47 173.81,-65.51 262.07,-260.14 196.48,-434.18l-147.1 -390.36c-0.47,-1.26 -1.92,-1.91 -3.15,-1.46l-870.79 328.17c-1.24,0.47 -1.9,1.92 -1.42,3.17l52.72 139.84 0 0zm777.92 1386.77c0.8,1.08 2.34,1.33 3.44,0.55l120.97 -88.13c1.09,-0.78 1.14,-2.22 0.36,-3.27l-300.31 -412.3 190.85 -138.98 215.83 296.33c0.79,1.07 2.35,1.32 3.43,0.53l48.6 -35.4c0.56,-0.39 0.6,-0.72 0.83,-1.17l21.42 -15.58c0.5,-0.1 0.98,-0.16 1.34,-0.45l48.8 -35.53c1.08,-0.79 1.32,-2.32 0.54,-3.42l-215.85 -296.34 190.83 -138.98 300.29 412.26c0.78,1.08 2.16,1.47 3.24,0.66l120.99 -88.12c1.06,-0.77 1.33,-2.31 0.52,-3.42l-389.97 -535.4c-0.81,-1.08 -2.36,-1.32 -3.42,-0.53l-752.17 547.85c-1.08,0.78 -1.34,2.35 -0.53,3.43l389.97 535.41zm352.64 353.32c1.05,0.81 2.62,0.6 3.44,-0.48l363.31 -477.25 52.74 670.54 10.58 134.29c0.09,0.63 0.5,1.2 1.04,1.6 0,0 0,0 0,0l21.17 15.58 27.11 20.65c1.07,0.79 2.43,0.45 3.26,-0.62l563.63 -740.42c0.81,-1.05 0.78,-2.48 -0.28,-3.29l-14.53 -11.06c-0.24,-0.48 -0.43,-0.9 -0.79,-1.17l-91.27 -69.48c-0.35,-0.27 -0.86,-0.36 -1.34,-0.46l-11.54 -8.76c-1.05,-0.81 -2.61,-0.61 -3.42,0.45l-363.04 476.9 -53.01 -670.16 -10.65 -133.5c0.06,-0.79 -0.33,-1.38 -0.86,-1.77l-47.85 -36.44c-1.06,-0.8 -2.64,-0.6 -3.44,0.48l-563.62 740.42c-0.84,1.07 -0.61,2.61 0.45,3.42l118.91 90.53zm1188.92 731.7c235.92,104.22 512.62,-2.94 616.83,-238.84 104.31,-236.15 -2.81,-512.85 -238.76,-617.07 -236.13,-104.3 -512.81,2.85 -617.11,238.99 -104.21,235.91 2.92,512.61 239.04,616.92l0 0zm1563.39 -570.67l-156.79 -30.36c-0.88,-0.18 -1.89,0.33 -2.49,1.11l-320.98 528.62 -100.16 -610.11c-0.27,-0.96 -1.02,-1.8 -1.9,-1.95l-156.79 -30.35c-0.88,-0.17 -1.62,0.15 -2.14,0.49 -0.56,0.59 -0.95,1.41 -0.65,2.16l138.44 843.91 15.48 91.05 7.11 44.22c0.03,0.95 0.78,1.74 1.88,1.97l63.41 12.25c0.88,0.17 1.89,-0.31 2.49,-1.09l514.69 -848.43c0.35,-0.61 0.45,-1.29 0.15,-2.02 -0.31,-0.74 -1.11,-1.34 -1.75,-1.47l0 0zm-157.88 882.56l159.56 -6.32c0.88,-0.04 1.77,-0.73 2.17,-1.63l61.22 -187.89 291.98 -11.56 75.43 182.46c0.49,0.89 1.39,1.5 2.29,1.49l159.56 -6.34c0.89,-0.04 1.55,-0.49 1.97,-0.96 0.42,-0.69 0.39,-1.59 0.12,-2.25l-327.93 -789.65 -35.68 -85.29 -17.03 -41.47c-0.47,-0.89 -1.38,-1.52 -2.28,-1.47l-64.55 2.57c-1.11,0.03 -1.97,0.75 -2.16,1.63l-307.03 943.63c-0.4,0.69 -0.16,1.58 0.29,2.01 0.48,0.66 1.17,1.07 2.07,1.04l0 0zm353.54 -596.2l98.08 236.61 -177.38 7.04 79.3 -243.65zm548.87 -279.28l206.14 750.83c0.36,1.31 1.72,2.11 3,1.73l144.33 -39.61c1.29,-0.35 1.86,-1.67 1.5,-2.96l-206.12 -750.86 288.21 -79.12c1.27,-0.38 1.92,-1.46 1.56,-2.77l-39.61 -144.33c-0.35,-1.27 -1.52,-2.11 -2.79,-1.75l-725.11 199.05c-1.27,0.35 -2.07,1.74 -1.71,3.02l39.63 144.34c0.34,1.28 1.65,1.83 2.94,1.47l288.03 -79.04zm1095.12 423.03c1.2,-0.6 1.71,-2.07 1.13,-3.29l-405.25 -837.67c-0.6,-1.2 -2.07,-1.72 -3.29,-1.12l-134.53 65.06c-1.2,0.58 -1.71,2.07 -1.11,3.28l405.25 837.67c0.58,1.22 2.07,1.71 3.27,1.13l134.53 -65.06zm671.76 -431.54c202.4,-159.87 236.99,-454.57 77.11,-656.97 -159.99,-202.56 -454.69,-237.15 -657.09,-77.27 -202.56,159.96 -237.14,454.69 -77.15,657.25 159.86,202.4 454.57,236.99 657.13,76.99l0 0zm674.36 -664.27c0.77,-1.08 0.53,-2.64 -0.57,-3.42l-487.7 -349.18 668.7 -72.38 133.93 -14.51c0.62,-0.09 1.19,-0.51 1.56,-1.05 0,0 0,0 0,0l14.96 -21.64 19.84 -27.7c0.77,-1.09 0.38,-2.46 -0.7,-3.25l-756.62 -541.7c-1.09,-0.75 -2.52,-0.69 -3.28,0.39l-10.64 14.85c-0.47,0.23 -0.87,0.47 -1.14,0.83l-66.77 93.26c-0.27,0.36 -0.35,0.85 -0.41,1.36l-8.43 11.76c-0.8,1.08 -0.53,2.65 0.55,3.42l487.33 348.9 -668.31 72.64 -133.13 14.54c-0.82,-0.03 -1.39,0.38 -1.8,0.93l-34.99 48.89c-0.78,1.08 -0.52,2.64 0.59,3.43l756.6 541.7c1.08,0.79 2.64,0.5 3.42,-0.58l87.01 -121.49zm-1199.06 -3065.93l0.35 -451.24 -1669.2 -977.9 0 0.01 -330.17 -193.41 -330.18 193.41 0 -0.01 -1029.07 602.8 0 -646.23 -389.49 212.06 0 662.34 -250.88 146.93 0.35 451.24 330.22 -193.45 0 0.03 1669.05 -977.69 1668.86 977.69 0 -0.03 330.16 193.45zm-5470.35 -168.19c0.54,-1.77 -0.49,-3.69 -2.26,-4.22l-515.23 -156.38 180.34 -594.19 515.22 156.37c1.8,0.54 3.7,-0.48 4.24,-2.27l60.5 -199.33c0.54,-1.79 -0.55,-3.41 -2.36,-3.95l-1235.69 -375.03c-1.76,-0.52 -3.61,0.2 -4.16,1.98l-60.5 199.32c-0.52,1.81 0.51,3.73 2.27,4.25l515.53 156.47 -180.34 594.19 -515.52 -156.46c-1.77,-0.55 -3.69,0.48 -4.25,2.25l-60.23 198.46c-0.54,1.78 0.5,3.7 2.27,4.24l1235.71 375.02c1.77,0.55 3.69,-0.47 4.24,-2.27l60.22 -198.45zm819.76 -1657.23c1.03,-1.54 0.63,-3.66 -0.92,-4.73l-171.89 -116.58c-1.53,-1.05 -3.42,-0.47 -4.46,1.06l-397.34 585.77 -271.13 -183.93 285.6 -421.01c1.03,-1.55 0.63,-3.69 -0.9,-4.71l-69.09 -46.88c-0.75,-0.51 -1.17,-0.42 -1.86,-0.52l-30.44 -20.64c-0.35,-0.63 -0.68,-1.2 -1.19,-1.54l-69.32 -47.03c-1.54,-1.05 -3.67,-0.64 -4.73,0.89l-285.58 421.03 -271.14 -183.91 397.34 -585.77c1.04,-1.52 0.87,-3.5 -0.67,-4.53l-171.88 -116.6c-1.53,-1.04 -3.69,-0.63 -4.73,0.9l-516.01 760.72c-1.03,1.53 -0.61,3.68 0.92,4.71l1068.68 724.91c1.54,1.07 3.69,0.65 4.72,-0.88l516.02 -760.73zm243.4 -208.36c1.41,-1.18 1.62,-3.34 0.41,-4.77l-231.39 -275.87 246.05 -206.39c14.19,-11.92 33.61,-18.1 52.8,-16.87l361.82 32.17c0.44,0.03 1.08,0.3 1.52,0.35 76.19,6.69 150.63,-16.63 209.36,-65.89 1.43,-1.2 1.38,-3.17 0.18,-4.59l-133.48 -159.14c-0.99,-1.19 -2.93,-1.59 -4.35,-0.38 -14.45,12.11 -33.6,18.1 -53.04,17.08l-262.69 -24.14c61.07,-158.53 31.28,-336.87 -77.97,-467.13 -165.65,-197.49 -461.08,-223.63 -658.82,-57.77l-443.53 372.03c-1.44,1.2 -1.62,3.37 -0.43,4.79l829.88 989.39c1.18,1.43 3.36,1.62 4.78,0.42l158.9 -133.29 0 0zm-693.75 -832.86l282.04 -236.57c106.8,-89.58 266.62,-75.58 356.6,31.69 89.37,106.6 75.36,266.38 -31.45,355.96l-282.03 236.58 -325.16 -387.66zm1628.29 196.27c1.76,-0.61 2.67,-2.59 2.04,-4.35l-281.24 -783.39 820.48 444.99 164.35 89.1c0.78,0.37 1.76,0.37 2.64,0.04 0,0 0,0 0,0l34.11 -12.9 44.5 -15.98c1.77,-0.64 2.4,-2.48 1.79,-4.25l-436.36 -1215.39c-0.63,-1.74 -2.31,-2.79 -4.06,-2.16l-23.84 8.56c-0.69,-0.07 -1.37,-0.16 -1.94,0.06l-149.82 53.78c-0.59,0.21 -1.07,0.72 -1.56,1.19l-18.88 6.79c-1.77,0.63 -2.68,2.61 -2.05,4.35l281.02 782.83 -820.28 -444.39 -163.43 -88.46c-0.9,-0.67 -1.88,-0.66 -2.75,-0.34l-78.55 28.21c-1.75,0.63 -2.67,2.61 -2.04,4.33l436.33 1215.42c0.63,1.75 2.59,2.68 4.35,2.04l195.19 -70.08zm902.01 -306.24l221.62 0.93c1.22,0 2.46,-0.92 3.06,-2.13l96.29 -256.76 405.53 1.71 93.5 257.54c0.61,1.23 1.84,2.17 3.09,2.17l221.59 0.93c1.23,0 2.17,-0.6 2.8,-1.23 0.62,-0.91 0.62,-2.16 0.32,-3.07l-406.71 -1114.73 -44.3 -120.42 -21.1 -58.5c-0.6,-1.24 -1.83,-2.21 -3.08,-2.21l-89.64 -0.37c-1.53,0 -2.77,0.93 -3.1,2.18l-482.94 1289.62c-0.63,0.92 -0.33,2.16 0.28,2.78 0.62,0.94 1.55,1.56 2.79,1.56l0 0zm526.35 -805.11l121.6 334.02 -246.32 -1.05 124.72 -332.97zm827.62 892.24c1.77,0.5 3.66,-0.57 4.17,-2.36l223.02 -801.94 412.64 837.24 82.66 167.69c0.42,0.76 1.23,1.29 2.12,1.54 0,0 0,0 0,0l35.3 9.17 45.57 12.68c1.8,0.5 3.39,-0.64 3.89,-2.44l346.01 -1244.14c0.49,-1.77 -0.26,-3.6 -2.07,-4.11l-24.42 -6.8c-0.52,-0.43 -1.02,-0.9 -1.62,-1.06l-153.34 -42.64c-0.6,-0.18 -1.29,-0.05 -1.97,0.06l-19.33 -5.38c-1.81,-0.51 -3.7,0.6 -4.21,2.38l-222.85 801.32 -412.8 -836.62 -82.31 -166.62c-0.35,-1.07 -1.14,-1.61 -2.04,-1.86l-80.41 -22.38c-1.79,-0.49 -3.7,0.59 -4.19,2.39l-345.99 1244.12c-0.51,1.8 0.57,3.69 2.35,4.2l199.82 55.56zm1273.24 577.89c282.63,219.61 691.63,168.31 911.42,-114.56 219.43,-282.36 167.93,-691.12 -114.7,-910.74l-366.07 -284.45c-1.48,-1.15 -3.65,-0.88 -4.79,0.59l-792.53 1019.92c-1.14,1.48 -0.89,3.63 0.6,4.77l366.07 284.47 0 0zm465.48 -1011.06l199.63 155.15c189.17,147 223.68,420.39 76.69,609.55 -147.34,189.63 -421.03,223.98 -610.18,77l-199.64 -155.16 533.5 -686.54zm630.27 2238.84c1.05,1.51 3.2,1.9 4.73,0.82l170.12 -119.13c1.53,-1.07 1.67,-3.03 0.6,-4.56l-406 -579.79 268.38 -187.92 291.82 416.76c1.07,1.49 3.2,1.88 4.7,0.83l68.39 -47.88c0.75,-0.53 0.83,-0.97 1.16,-1.57l30.13 -21.09c0.69,-0.11 1.36,-0.21 1.87,-0.57l68.62 -48.03c1.5,-1.08 1.89,-3.23 0.84,-4.73l-291.84 -416.76 268.39 -187.91 405.99 579.78c1.06,1.53 2.96,2.07 4.48,1l170.13 -119.12c1.52,-1.06 1.91,-3.22 0.86,-4.74l-527.28 -752.97c-1.05,-1.53 -3.21,-1.9 -4.73,-0.84l-1057.79 740.73c-1.53,1.06 -1.9,3.19 -0.84,4.72l527.27 752.97zm373.77 400.94l1226.18 324.85c1.08,0.33 2.27,-0.03 3.26,-0.97 0.74,-0.86 0.95,-2.22 0.69,-3.12l-302.87 -997.89c-0.51,-1.77 -2.46,-2.79 -4.23,-2.27l-198.45 60.25c-1.77,0.54 -2.82,2.46 -2.27,4.24l192.81 635.29 -1225.82 -324.68c-1.37,-0.24 -2.56,0.11 -3.28,0.98 -1.08,0.68 -1.3,2.03 -0.94,3.21l302.84 997.89c0.55,1.77 2.37,2.51 4.16,1.95l198.76 -60.3c1.77,-0.54 2.6,-2.07 2.04,-3.87l-192.88 -635.56zm-1730.71 818.33l-1341.07 -785.66 0 0 -330.15 -193.4 -0.23 451.27 0.56 0.33 2.02 2672.43 387.45 0 -0.42 -514.51 412.2 -241.46 483.66 283.38 -3.55 471.1 389.53 0 0 -245.02 1.11 0.67 0 -451.43 -485.44 -284.39 484.57 -283.87 -0.24 -451.27 0 -393.42 0 -34.75zm-1283.4 -300.44l893.87 523.68 0 433.11 -892.67 522.9 -1.2 -1479.69z"/>
 </g>
</svg>