<svg width="6064" height="6064" viewBox="0 0 6064 6064" fill="none" xmlns="http://www.w3.org/2000/svg">
<path fill-rule="evenodd" clip-rule="evenodd" d="M1192.3 3908.21V2581.26L1603.86 2340.51V3667.16L2498.62 3143.07L2499.7 1807.72L2911.27 1566.95L2908.77 4867.77H2497.19L2498.23 3620.28L1603.86 4144.13V4867.49H1192.3V4385.2L922.746 4543.12L922.386 4066.31L1192.3 3908.21ZM5152.4 2458.69L5152.76 1981.91L3040.12 744.336L1603.86 1585.59V902.79L1192.31 1126.85V1826.67L927.215 1981.91L927.584 2458.69L1276.51 2254.29V2254.32L3040.12 1221.31L4803.53 2254.32V2254.29L5152.4 2458.69ZM4936.18 2601.81L3170.28 1567.35L3170.04 2044.16L3170.63 2044.5L3172.76 4868.15H3582.16L3581.72 4324.53L4017.27 4069.41L4528.34 4368.82L4524.58 4866.58H4936.18V4607.7L4937.36 4608.4V4131.43L4424.41 3830.95L4936.44 3531.01L4936.18 2601.81ZM3580.07 2284.37L4524.58 2837.68V3295.3L3581.34 3847.79L3580.07 2284.37Z" fill="#F9FAFB"/>
<path d="M6064 3032C6064 4706.53 4706.53 6064 3032 6064C1357.47 6064 0 4706.53 0 3032C0 1357.47 1357.47 0 3032 0C4706.53 0 6064 1357.47 6064 3032ZM229.185 3032C229.185 4579.95 1484.05 5834.82 3032 5834.82C4579.95 5834.82 5834.82 4579.95 5834.82 3032C5834.82 1484.05 4579.95 229.185 3032 229.185C1484.05 229.185 229.185 1484.05 229.185 3032Z" fill="#F9FAFB"/>
</svg>
